<svg xmlns="http://www.w3.org/2000/svg" viewBox="0 0 426 277.8"><defs><style>.cls-1{stroke:#000;stroke-miterlimit:10;stroke-width:2px;}.cls-2{opacity:0.48;}</style></defs><title>ufogo-sil</title><g id="Layer_2" data-name="Layer 2"><g id="Layer_1_copy_3" data-name="Layer 1 copy 3"><path class="cls-1" d="M425,193.18v13.47c0,20.71-14,37.5-31.28,37.5H380.49a55.12,55.12,0,0,1-100.66,0H146.17a55.11,55.11,0,0,1-100.66,0H32.29C15,244.15,1,227.36,1,206.65V193.18c0-19.76,12.75-35.94,28.92-37.39.78-.07,1.57-.11,2.37-.11H393.72c.79,0,1.58,0,2.36.11C412.26,157.23,425,173.42,425,193.18Z"/><path class="cls-1" d="M396.08,155.79c-.78-.07-1.57-.11-2.36-.11H32.29c-.8,0-1.59,0-2.37.11,0-.13,0-.27.07-.4a185.66,185.66,0,0,1,366,0C396,155.52,396.06,155.66,396.08,155.79Z"/><path class="cls-2" d="M393.48,156.68H58.26c.14-1,.29-2,.45-3,.28-1.7.58-3.39.91-5.07A168.46,168.46,0,0,1,90.3,79.76c.67-.89,1.37-1.79,2.06-2.68s1.18-1.5,1.79-2.24,1.1-1.36,1.68-2,.91-1.11,1.39-1.66A169.4,169.4,0,0,1,392.1,148.65c.33,1.68.63,3.37.92,5.07C393.18,154.7,393.33,155.69,393.48,156.68Z"/></g></g></svg>