<svg xmlns="http://www.w3.org/2000/svg" viewBox="0 0 568.19 568.19"><defs><style>.cls-1{fill:#40ba92;}.cls-2{fill:#f5f7fa;stroke:#454754;stroke-miterlimit:10;stroke-width:20px;}</style></defs><title>zogo-fat-dark</title><g id="Layer_2" data-name="Layer 2"><g id="light_copy" data-name="light copy"><path class="cls-1" d="M65.22,294.77c17.18-16.4,44.65-23,65.64-11.9,23.93,12.68,32.59,42.26,50.54,62.53,18.16,20.5,46.07,30.87,73.44,31.08,7.81.06,15.79-.68,23-3.78,6.42-2.78,11.88-7.32,17.57-11.38,16.16-11.53,36.14-19.68,55.68-16.12,27.59,5,48.94,32.17,77,31.59,14-.29,26.63-7.57,39.52-12.94s28.27-8.77,40.32-1.73c15.34,9,17.71,31.56,9.51,47.31s-23.86,26.06-39.22,35c-46,26.65-95.91,47.39-148.41,55.49S222,502.9,174,480.17a318.43,318.43,0,0,1-30.85-17.05c-14.48-8.94-28.66-18.67-40.42-31-26.29-27.5-38.32-65.25-49.55-101.6-3.06-9.91-6.11-20.75-2.34-30.41s17.72-15.57,24.83-8"/><path class="cls-2" d="M558.19,283.91a268.17,268.17,0,0,1-9.79,72.64A279.55,279.55,0,0,1,520.86,422,271.16,271.16,0,0,1,478,477.61a278.92,278.92,0,0,1-55.45,43.07,271.38,271.38,0,0,1-138.25,37.51,267.71,267.71,0,0,1-72.63-9.79A276,276,0,0,1,19.8,356.55a274.78,274.78,0,0,1,0-145.46,270.14,270.14,0,0,1,27.72-65.43A279.44,279.44,0,0,1,90.58,90.21a271.84,271.84,0,0,1,55.64-42.88A280,280,0,0,1,211.65,19.8a274.74,274.74,0,0,1,145.45,0A273.61,273.61,0,0,1,548.4,211.09,270.24,270.24,0,0,1,558.19,283.91Zm-105.35,0a164,164,0,0,0-13.3-65.61,168.08,168.08,0,0,0-89.64-89.64,168.86,168.86,0,0,0-131.42,0,173.09,173.09,0,0,0-53.6,36,168.8,168.8,0,0,0-36.22,53.6,164,164,0,0,0-13.31,65.61,161.38,161.38,0,0,0,13.31,65.25,170.85,170.85,0,0,0,89.82,89.64,169,169,0,0,0,131.42,0,168.67,168.67,0,0,0,53.59-36.23,173.85,173.85,0,0,0,36.05-53.41A161.37,161.37,0,0,0,452.84,283.91Z"/></g></g></svg>