<svg xmlns="http://www.w3.org/2000/svg" viewBox="0 0 557.19 557.19"><defs><style>.cls-1{fill:#3fba91;}.cls-2{fill:#f5f7fa;stroke:#3fba91;stroke-miterlimit:10;stroke-width:9px;}</style></defs><title>zogo-light</title><g id="Layer_2" data-name="Layer 2"><g id="light"><path class="cls-1" d="M59.72,289.27c17.18-16.4,44.65-23,65.64-11.9,23.93,12.68,32.59,42.26,50.54,62.53C194.06,360.4,222,370.77,249.34,371c7.81.06,15.79-.68,23-3.78,6.42-2.78,11.88-7.32,17.57-11.38C306,344.29,326,336.14,345.54,339.7c27.59,5,48.94,32.17,77,31.59,14-.29,26.63-7.57,39.52-12.94s28.27-8.77,40.32-1.73c15.34,9,17.71,31.56,9.51,47.31S488,430,472.66,438.9c-46,26.65-95.91,47.39-148.41,55.49s-107.77,3-155.79-19.72a318.43,318.43,0,0,1-30.85-17.05c-14.48-8.94-28.66-18.67-40.42-31-26.29-27.5-38.32-65.25-49.55-101.6-3.06-9.91-6.11-20.75-2.34-30.41s17.72-15.57,24.83-8"/><path class="cls-2" d="M552.69,278.41a268.17,268.17,0,0,1-9.79,72.64,279.55,279.55,0,0,1-27.54,65.43,271.16,271.16,0,0,1-42.88,55.63A278.92,278.92,0,0,1,417,515.18a271.38,271.38,0,0,1-138.25,37.51,267.71,267.71,0,0,1-72.63-9.79A276,276,0,0,1,14.3,351.05a274.78,274.78,0,0,1,0-145.46A270.14,270.14,0,0,1,42,140.16,279.44,279.44,0,0,1,85.08,84.71a271.84,271.84,0,0,1,55.64-42.88A280,280,0,0,1,206.15,14.3a274.74,274.74,0,0,1,145.45,0A273.61,273.61,0,0,1,542.9,205.59,270.24,270.24,0,0,1,552.69,278.41Zm-105.35,0A164,164,0,0,0,434,212.8a168.08,168.08,0,0,0-89.64-89.64,168.86,168.86,0,0,0-131.42,0,173.09,173.09,0,0,0-53.6,36,168.8,168.8,0,0,0-36.22,53.6,164,164,0,0,0-13.31,65.61,161.38,161.38,0,0,0,13.31,65.25A170.85,170.85,0,0,0,213,433.3a169,169,0,0,0,131.42,0A168.67,168.67,0,0,0,398,397.07,173.85,173.85,0,0,0,434,343.66,161.37,161.37,0,0,0,447.34,278.41Z"/></g></g></svg>